<svg width="20" height="20" viewBox="0 0 20 20" fill="none" xmlns="http://www.w3.org/2000/svg">
<path d="M5.07148 19.9293C3.88207 19.8752 3.23595 19.6772 2.80619 19.5096C2.23675 19.2879 1.83077 19.024 1.40339 18.5972C0.976016 18.1704 0.711505 17.7644 0.49098 17.195C0.323357 16.7652 0.12542 16.1191 0.0713288 14.9297C0.0118881 13.644 0 13.2582 0 10.0009C0 6.74354 0.0130769 6.35837 0.0707344 5.07148C0.124825 3.88207 0.323952 3.23714 0.490385 2.80619C0.712099 2.23675 0.97661 1.83077 1.4028 1.4028C1.82958 0.976016 2.23556 0.71091 2.8056 0.490385C3.23536 0.322763 3.88147 0.124825 5.07088 0.0707344C6.35718 0.0118881 6.74354 0 9.9997 0C13.2571 0 13.6422 0.0130769 14.9291 0.0707344C16.1185 0.124825 16.7635 0.323952 17.1944 0.490385C17.7638 0.71091 18.1698 0.976016 18.5972 1.4028C19.0246 1.82958 19.2879 2.23616 19.5096 2.8056C19.6772 3.23536 19.8752 3.88147 19.9293 5.07088C19.9881 6.35777 20 6.74295 20 10.0003C20 13.2565 19.9881 13.6428 19.9293 14.9297C19.8752 16.1191 19.676 16.7652 19.5096 17.195C19.2879 17.7644 19.024 18.1704 18.5972 18.5972C18.1704 19.024 17.7638 19.2879 17.1944 19.5096C16.7646 19.6772 16.1185 19.8752 14.9291 19.9293C13.6434 19.9881 13.2571 20 9.9997 20C6.74354 20 6.35718 19.9887 5.07148 19.9293Z" fill="#808080"/>
<path d="M7.73107 9.92933C7.73107 8.71512 8.71512 7.73054 9.92933 7.73054C11.1435 7.73054 12.1281 8.71512 12.1281 9.92933C12.1281 11.1435 11.1435 12.1281 9.92933 12.1281C8.71512 12.1281 7.73107 11.1435 7.73107 9.92933ZM6.54245 9.92933C6.54245 11.7999 8.05875 13.3162 9.92933 13.3162C11.7999 13.3162 13.3162 11.7999 13.3162 9.92933C13.3162 8.05875 11.7999 6.54245 9.92933 6.54245C8.05875 6.54245 6.5425 8.05865 6.5425 9.92933M12.6588 6.40816C12.6588 6.5647 12.7051 6.71775 12.7921 6.84794C12.879 6.97814 13.0026 7.07964 13.1472 7.1396C13.2918 7.19957 13.4509 7.21531 13.6044 7.18483C13.758 7.15435 13.8991 7.07902 14.0098 6.96837C14.1205 6.85772 14.196 6.71672 14.2266 6.5632C14.2572 6.40967 14.2416 6.25052 14.1817 6.10587C14.1219 5.96122 14.0205 5.83756 13.8903 5.75054C13.7602 5.66352 13.6072 5.61704 13.4507 5.61697H13.4503C13.2405 5.61707 13.0393 5.70045 12.8909 5.84879C12.7425 5.99714 12.659 6.19832 12.6588 6.40816ZM7.26461 15.2982C6.62155 15.2689 6.27202 15.1618 6.03974 15.0713C5.73179 14.9514 5.51207 14.8087 5.28106 14.578C5.05005 14.3473 4.90705 14.1278 4.78769 13.8198C4.69715 13.5876 4.59003 13.238 4.5608 12.5949C4.52882 11.8997 4.52243 11.6908 4.52243 9.92943C4.52243 8.16803 4.52935 7.95976 4.5608 7.26393C4.59008 6.62086 4.69799 6.27191 4.78769 6.03905C4.90758 5.73111 5.05037 5.51139 5.28106 5.28037C5.51176 5.04936 5.73127 4.90636 6.03974 4.78701C6.27191 4.69646 6.62155 4.58934 7.26461 4.56011C7.95987 4.52813 8.16872 4.52175 9.92933 4.52175C11.6899 4.52175 11.899 4.52856 12.5948 4.56022C13.2379 4.5895 13.5869 4.69741 13.8197 4.78711C14.1277 4.90647 14.3474 5.04978 14.5784 5.28048C14.8094 5.51118 14.9519 5.73121 15.0718 6.03916C15.1623 6.27133 15.2694 6.62097 15.2987 7.26403C15.3306 7.95987 15.337 8.16814 15.337 9.92954C15.337 11.6909 15.3306 11.8992 15.2987 12.595C15.2694 13.2381 15.1617 13.5876 15.0718 13.8199C14.9519 14.1279 14.8091 14.3476 14.5784 14.5781C14.3477 14.8086 14.1277 14.9516 13.8197 15.0714C13.5875 15.162 13.2379 15.2691 12.5948 15.2983C11.8996 15.3303 11.6907 15.3367 9.92933 15.3367C8.16793 15.3367 7.95966 15.3303 7.26461 15.2983M7.21 3.37344C6.50783 3.40542 6.02803 3.51675 5.60901 3.6798C5.17532 3.84818 4.80769 4.07408 4.44059 4.44059C4.0735 4.80711 3.84818 5.17479 3.6798 5.60901C3.51675 6.02829 3.40542 6.50783 3.37344 7.21C3.34094 7.91327 3.3335 8.13811 3.3335 9.92933C3.3335 11.7205 3.34094 11.9454 3.37344 12.6487C3.40542 13.3509 3.51675 13.8304 3.6798 14.2497C3.84818 14.6833 4.07355 15.0517 4.44059 15.4181C4.80764 15.7844 5.17479 16.01 5.60901 16.1789C6.02882 16.3419 6.50783 16.4532 7.21 16.4852C7.91364 16.5172 8.13811 16.5252 9.92933 16.5252C11.7205 16.5252 11.9454 16.5177 12.6487 16.4852C13.3509 16.4532 13.8304 16.3419 14.2497 16.1789C14.6833 16.01 15.051 15.7846 15.4181 15.4181C15.7852 15.0515 16.01 14.6833 16.1789 14.2497C16.3419 13.8304 16.4538 13.3508 16.4852 12.6487C16.5172 11.9449 16.5246 11.7205 16.5246 9.92933C16.5246 8.13811 16.5172 7.91327 16.4852 7.21C16.4532 6.50778 16.3419 6.02803 16.1789 5.60901C16.01 5.17532 15.7846 4.80769 15.4181 4.44059C15.0515 4.0735 14.6833 3.84818 14.2502 3.6798C13.8304 3.51675 13.3508 3.40489 12.6492 3.37344C11.9458 3.34131 11.7211 3.3335 9.93012 3.3335C8.13917 3.3335 7.91391 3.34094 7.21026 3.37344" fill="white"/>
</svg>
