<svg width="24" height="25" viewBox="0 0 24 25" fill="none" xmlns="http://www.w3.org/2000/svg">
<path d="M20 3.00244H4C1.8 3.00244 0 4.80244 0 7.00244V17.0024C0 19.2024 1.8 21.0024 4 21.0024H20C22.2 21.0024 24 19.2024 24 17.0024V7.00244C24 4.80244 22.2 3.00244 20 3.00244ZM21.6 8.80244L13.7 14.1024C13.2 14.4024 12.6 14.6024 12 14.6024C11.4 14.6024 10.8 14.4024 10.3 14.1024L2.4 8.80244C2 8.50244 1.9 7.90244 2.2 7.40244C2.5 7.00244 3.1 6.90244 3.6 7.20244L11.5 12.5024C11.8 12.7024 12.3 12.7024 12.6 12.5024L20.5 7.20244C21 6.90244 21.6 7.00244 21.9 7.50244C22.1 7.90244 22 8.50244 21.6 8.80244Z" fill="#2A4B9B"/>
</svg>
