<svg xmlns="http://www.w3.org/2000/svg" xmlns:xlink="http://www.w3.org/1999/xlink"
    viewBox="0 0 20 20" height="20" width="20">
    <rect width="20" height="20" rx="10" fill="#808080" />
    <path
        d="M5.077,9.457c0-.778.136-1.513.404-2.199.256054-.666299.636478-1.277828,1.121-1.802.483536-.51729,1.036868-.9646,1.644-1.329.622915-.376848,1.297298-.661153,2.002-.844.713211-.187279,1.447611-.281726,2.185-.281c1.139,0,2.199.241,3.182.721.970167.471247,1.795939,1.194445,2.391,2.094.614.915.919,1.95.919,3.104c0,.692-.068,1.369-.207,2.031-.136486.661632-.353432,1.304075-.646,1.913-.278868.589456-.64349,1.134367-1.082,1.617-.44072.474957-.974453.854152-1.568,1.114-.644395.282408-1.341479.424552-2.045.417-.489,0-.977-.115-1.459-.346-.482-.23-.828-.546-1.036-.951-.073.281-.173.687-.306,1.218-.128.53-.214.872-.252,1.027-.04.154-.114.411-.222.767-.073243.263342-.167202.520477-.281.769l-.344.674c-.148768.289221-.315078.569076-.498.838-.181.262-.405.575-.672.935l-.149.053-.099-.108c-.107-1.133-.162-1.811-.162-2.035c0-.663.079-1.407.235-2.233.153-.825.395-1.862.72-3.109.325-1.246.511-1.979.561-2.196-.229-.467-.345-1.077-.345-1.827c0-.599.187-1.16.562-1.688.376-.526.851-.789,1.427-.789.441,0,.783.146,1.028.439.246.292.366.66.366,1.109c0,.476-.158,1.165-.476,2.066-.318.902-.476,1.575-.476,2.022c0,.453.162.832.486,1.129.319746.297149.742593.458183,1.179.449.396,0,.763-.09,1.104-.271.33567-.175695.626221-.426548.849-.733.485221-.665703.831124-1.422472,1.017-2.225.096-.422.17-.823.216-1.2.049-.379.07-.737.07-1.077c0-1.247-.396-2.219-1.183-2.915-.791-.696-1.821-1.042-3.088-1.042-1.441,0-2.646.466-3.611,1.401-.966.932-1.452,2.117-1.452,3.554c0,.317.048.623.139.919.089.295.186.53.291.704.104.171.202.338.291.492.09.154.137.264.137.33c0,.202-.053.465-.16.79-.111.325-.242.487-.4.487-.015,0-.077-.011-.185-.034-.374037-.111668-.711824-.320412-.979-.605-.283562-.294946-.507346-.641998-.659-1.022-.151222-.378648-.269005-.769808-.352-1.169-.089668-.377721-.133981-.764786-.132-1.153Z"
        transform="matrix(.918997 0 0 0.883556-1.028859 1.028674)" fill="white" />
</svg>