<svg width="98" height="54" viewBox="0 0 98 54" fill="none" xmlns="http://www.w3.org/2000/svg">
<path d="M1.04876 8.93944C6.42171 2.1266 19.3506 -6.2457 28.0827 14.7679C29.9208 21.8558 28.6259 42.7565 19.1555 40.5228C7.10239 37.6799 22.6752 15.8069 32.29 11.8116C41.0456 8.1733 51.4783 11.8406 55.145 24.6614C58.8116 37.4821 50.2548 46.3227 45.5076 41.8026C41.9747 38.4387 48.493 26.8216 60.4894 21.5346C70.4987 17.1233 84.8798 21.3648 88.3759 33.0485C91.1729 42.3954 89.8441 49.2993 88.8302 51.5829M88.8302 51.5829L97.046 40.4682M88.8302 51.5829L81.4395 41.0647" stroke="#041336" stroke-width="2"/>
</svg>
