<svg width="124" height="107" viewBox="0 0 124 107" fill="none" xmlns="http://www.w3.org/2000/svg">
<path d="M120.217 3.32624C125.258 15.2211 126.92 38.0953 93.2362 34.433C82.6681 31.7526 56.3172 15.0844 66.0193 4.32479C78.3675 -9.3692 95.7552 26.6307 94.0795 42.0428C92.5535 56.0776 80.2906 67.0658 60.9298 62.6636C41.5691 58.2614 36.1628 40.7579 45.4642 37.8013C52.3864 35.601 62.8774 52.4336 61.1808 71.8796C59.7653 88.1047 43.9234 103.835 26.1689 100.025C11.9653 96.977 3.90675 90.2952 1.65293 87.3353M1.65293 87.3353L10.2717 106.023M1.65293 87.3353L20.6774 85.227" stroke="#2A4B9B" stroke-width="2"/>
</svg>
