<svg width="189" height="92" viewBox="0 0 189 92" fill="none" xmlns="http://www.w3.org/2000/svg">
<path d="M1.43405 34.9056C3.34828 51.2287 15.924 77.5611 50.9132 52.3065C60.9257 42.6901 79.5985 7.67464 62.0747 1.88865C39.7716 -5.47534 43.2066 45.2674 54.7753 61.2496C65.3102 75.8036 85.8136 80.2301 104.477 63.1748C123.14 46.1196 118.095 23.3669 105.933 25.9543C96.8812 27.88 95.8732 53.0922 110.007 73.5207C121.8 90.5654 149.255 97.9806 166.513 82.5914C180.319 70.28 185.031 57.8202 185.662 53.1293M185.662 53.1293L187.896 79.2141M185.662 53.1293L163.268 62.7758" stroke="#2A4B9B" stroke-width="2"/>
</svg>
