<svg width="125" height="96" viewBox="0 0 125 96" fill="none" xmlns="http://www.w3.org/2000/svg">
<path d="M122.37 8.3595C126.028 20.084 125.462 41.88 93.9373 35.2673C84.1897 31.7437 60.8176 13.5118 71.002 4.23915C83.964 -7.56235 97.0497 28.1211 94.024 42.5455C91.2686 55.6808 78.6402 64.9304 60.7349 58.9562C42.8296 52.982 39.3507 35.9173 48.4268 33.9894C55.1814 32.5546 63.5335 49.4599 60.1111 67.6987C57.2555 82.9165 40.7979 96.3177 24.3569 91.0541C11.2041 86.8431 4.20462 79.7686 2.34896 76.7576M2.34896 76.7576L8.75643 95.2434M2.34896 76.7576L20.5445 76.541" stroke="#041336" stroke-width="2"/>
</svg>
