<svg width="751" height="741" viewBox="0 0 751 741" fill="none" xmlns="http://www.w3.org/2000/svg">
<path d="M47.6184 308.743C-35.275 170.169 113.866 112.482 237.073 127.171C308.092 132.608 330.462 48.4276 418.455 55.2172C506.449 62.0067 435.74 179.611 571.073 192.502C706.406 205.393 704.494 431.068 598.177 463.067C491.86 495.065 530.986 522.114 446.26 632.182C361.535 742.249 150.38 680.294 162.543 549.831C174.706 419.368 137.352 458.751 47.6184 308.743Z" stroke="#1877F2" stroke-opacity="0.04"/>
<path d="M310.164 361.816C301.436 348.849 317.434 319.609 338.147 324.471C357.113 328.923 372.209 318.207 384.404 319.158C416.508 321.661 407.322 330.226 423.84 339.175C443.939 350.066 462.579 387.984 426.088 398.076C396.076 406.377 409.087 418.47 388.4 431.144C367.713 443.819 339.186 439.873 331.181 410.928C328.174 400.059 324.703 383.415 310.164 361.816Z" stroke="#1877F2" stroke-opacity="0.04"/>
<path d="M71.2811 312.84C-4.87008 185.685 132.167 130.584 246.056 144.379C312.343 149.727 334.052 72.225 415.155 78.4838C498.068 84.8836 432.952 192.575 557.483 205.108C682.341 217.817 682.297 426.424 582.327 456.431C482.947 486.275 519.699 511.964 440.795 613.178C361.892 714.391 167.339 657.71 177.668 536.476C188.453 416.885 154.179 451.174 71.2811 312.84Z" stroke="#1877F2" stroke-opacity="0.04"/>
<path d="M94.945 316.937C25.5361 201.201 150.469 148.686 255.041 161.588C316.596 166.846 337.643 96.0228 411.855 101.751C489.687 107.761 430.164 205.54 543.895 217.714C658.276 230.242 660.101 421.779 566.479 449.795C474.036 477.484 508.413 501.814 435.331 594.174C362.249 686.534 184.299 635.126 192.795 523.121C202.2 414.402 171.007 443.598 94.945 316.937Z" stroke="#1877F2" stroke-opacity="0.04"/>
<path d="M118.609 321.034C55.9426 216.717 168.772 166.788 264.026 178.797C320.849 183.965 341.235 119.821 408.556 125.018C481.307 130.638 427.377 218.505 530.306 230.321C634.212 242.666 637.905 417.135 550.631 443.159C465.124 468.694 497.128 491.665 429.868 575.17C362.607 658.676 201.26 612.542 207.922 509.766C215.948 411.919 187.835 436.022 118.609 321.034Z" stroke="#1877F2" stroke-opacity="0.04"/>
<path d="M142.273 325.133C86.3489 232.234 187.075 184.892 273.011 196.007C325.102 201.086 344.826 143.62 405.257 148.286C472.927 153.517 424.59 231.471 516.718 242.929C610.147 255.092 615.709 412.492 534.783 436.525C456.213 459.906 485.843 481.516 424.404 556.168C362.965 630.82 218.22 589.959 223.049 496.412C229.696 409.438 204.663 428.447 142.273 325.133Z" stroke="#1877F2" stroke-opacity="0.04"/>
<path d="M166.076 329.732C116.894 248.252 205.515 203.496 282.134 213.718C329.493 218.707 348.556 167.92 402.096 172.055C464.685 176.896 421.941 244.937 503.267 256.037C586.221 268.019 593.651 408.35 519.073 430.391C447.44 451.618 474.696 471.868 419.079 537.666C363.462 603.464 235.319 567.877 238.315 483.559C243.583 407.456 221.63 421.372 166.076 329.732Z" stroke="#1877F2" stroke-opacity="0.04"/>
<path d="M190.043 334.924C147.603 264.863 224.121 222.692 291.422 232.021C334.049 236.921 352.451 192.812 399.1 196.417C456.608 200.868 419.458 258.996 489.982 269.738C562.46 281.537 571.759 404.8 503.528 424.849C438.832 443.922 463.714 462.813 413.918 519.757C364.123 576.701 252.583 546.387 253.745 471.298C257.634 406.068 238.761 414.89 190.043 334.924Z" stroke="#1877F2" stroke-opacity="0.04"/>
<path d="M214.02 340.148C178.322 281.506 242.737 241.922 300.719 250.357C338.614 255.167 356.355 217.737 396.113 220.811C448.541 224.872 416.983 273.088 476.706 283.471C538.708 295.089 549.875 401.283 487.993 419.341C430.233 436.259 452.741 453.79 408.767 501.88C364.793 549.97 269.856 524.931 269.185 459.07C271.695 404.712 255.902 408.441 214.02 340.148Z" stroke="#1877F2" stroke-opacity="0.04"/>
<path d="M238.011 345.42C209.055 298.196 261.366 261.198 310.031 268.74C343.193 273.461 360.273 242.709 393.141 245.252C440.487 248.924 414.523 287.227 463.444 297.252C514.97 308.688 528.006 397.812 472.471 413.879C421.649 428.643 441.782 444.815 403.63 484.051C365.478 523.287 287.143 503.521 284.638 446.889C285.769 403.403 273.057 402.039 238.011 345.42Z" stroke="#1877F2" stroke-opacity="0.04"/>
<path d="M262.022 350.761C239.809 314.956 280.015 280.544 319.363 287.193C347.793 291.824 364.212 267.751 390.189 269.763C432.454 273.045 412.083 301.436 450.203 311.102C491.253 322.356 506.157 394.412 456.97 408.487C413.085 421.097 430.844 435.909 398.514 466.291C366.183 496.673 304.451 482.181 300.113 434.778C299.864 402.164 290.232 395.707 262.022 350.761Z" stroke="#1877F2" stroke-opacity="0.04"/>
<path d="M286.066 356.208C270.595 331.821 298.698 299.995 328.728 305.75C352.426 310.292 368.184 292.898 387.269 294.379C424.454 297.272 409.675 315.749 436.994 325.057C467.569 336.13 484.341 391.117 441.502 403.201C404.553 413.656 419.939 427.108 393.43 448.636C366.921 470.165 321.791 460.946 315.619 422.772C313.992 401.03 307.44 389.479 286.066 356.208Z" stroke="#1877F2" stroke-opacity="0.04"/>
</svg>
