<svg width="18" height="12" viewBox="0 0 18 12" fill="none" xmlns="http://www.w3.org/2000/svg">
<path d="M17.524 10.8535C17.2813 11.1145 16.9491 11.2642 16.6002 11.2697C16.2514 11.2752 15.9146 11.136 15.6639 10.8829L9.0453 4.19803L2.64065 11.0881C2.39648 11.3418 2.06637 11.4852 1.7214 11.4875C1.37644 11.4898 1.04423 11.3508 0.796323 11.1004C0.548418 10.8501 0.404652 10.5083 0.395989 10.1488C0.387325 9.78936 0.514461 9.44091 0.75001 9.17852L8.06943 1.30437C8.31207 1.04342 8.64433 0.893738 8.99315 0.888241C9.34196 0.882744 9.67878 1.02188 9.92951 1.27505L17.4934 8.91466C17.7441 9.16792 17.8881 9.51444 17.8938 9.87803C17.8996 10.2416 17.7665 10.5925 17.524 10.8535Z" fill="#2A4B9B"/>
</svg>
