<svg width="30" height="30" viewBox="0 0 30 30" fill="none" xmlns="http://www.w3.org/2000/svg">
<path fill-rule="evenodd" clip-rule="evenodd" d="M25.601 4.39683C22.8859 1.68133 19.141 0.00439453 14.9976 0.00439453C10.8544 0.00439453 7.10958 1.68133 4.39439 4.39677C1.6792 7.11208 0.00195312 10.8567 0.00195312 15C0.00195312 19.1431 1.6792 22.8881 4.39439 25.6033C7.10958 28.3187 10.8543 29.9955 14.9976 29.9955C19.141 29.9955 22.8859 28.3187 25.601 25.6033C28.3162 22.8881 29.9937 19.1431 29.9937 15C29.9937 10.8568 28.3163 7.11214 25.601 4.39683ZM24.7792 24.7812C22.2716 27.2808 18.8171 28.8251 14.9976 28.8251C11.1783 28.8251 7.72396 27.2808 5.22471 24.7812C2.72527 22.2739 1.17264 18.8196 1.17264 15.0001C1.17264 11.1806 2.72527 7.72639 5.22471 5.22714C7.72396 2.72789 11.1783 1.17496 14.9976 1.17496C18.8171 1.17496 22.2716 2.72789 24.7792 5.22714C27.2785 7.72639 28.8228 11.1806 28.8228 15.0001C28.8228 18.8196 27.2785 22.2739 24.7792 24.7812Z" fill="#262626"/>
<path fill-rule="evenodd" clip-rule="evenodd" d="M16.25 10.7072C16.25 10.1177 16.5336 9.875 16.8163 9.875H18.625V7.1875H16.1683C13.5362 7.1875 12.875 9.29556 12.875 10.5578V11.75H11.375V14.75H12.875V22.625H16.25V14.75H18.2941L18.3938 13.578L18.5766 11.75H16.25V10.7072Z" fill="#262626"/>
</svg>
