<svg width="32" height="32" viewBox="0 0 32 32" fill="none" xmlns="http://www.w3.org/2000/svg">
<path d="M10.4959 1.9982C10.4711 1.99831 10.4463 2.00027 10.4217 2.00406H6.00178C5.44757 2.00406 4.96434 2.25619 4.64045 2.61539C4.31656 2.97449 4.12578 3.42358 4.01545 3.88688L2.01545 12.2873C2.00163 12.3434 1.99767 12.4016 2.00373 12.4591C2.00241 12.4741 2.00176 12.4891 2.00178 12.5041C2.00178 13.9496 2.76037 15.2879 3.99787 16.0138C3.99914 16.0146 4.00051 16.015 4.00178 16.0158V29.5041C4.00179 29.6367 4.05448 29.7638 4.14824 29.8576C4.24201 29.9514 4.36918 30.004 4.50178 30.0041H28.5018C28.6344 30.004 28.7616 29.9514 28.8553 29.8576C28.9491 29.7638 29.0018 29.6367 29.0018 29.5041V16.0158C29.0025 16.0153 29.003 16.0143 29.0037 16.0138C30.2412 15.2879 31.0018 13.9496 31.0018 12.5041C31.0016 12.491 31.001 12.478 30.9998 12.465C30.9998 12.4637 30.9998 12.4624 30.9998 12.4611C30.9998 12.4585 30.9998 12.4559 30.9998 12.4533C31.0052 12.3977 31.0013 12.3416 30.9881 12.2873L28.9881 3.88688C28.8778 3.42358 28.687 2.97449 28.3631 2.61539C28.0392 2.25619 27.556 2.00406 27.0018 2.00406H22.5819C22.5521 1.99941 22.5221 1.99745 22.492 1.9982C22.4685 1.9985 22.445 2.00046 22.4217 2.00406H16.5819C16.5528 1.99953 16.5234 1.99757 16.494 1.9982C16.4685 1.99821 16.443 2.00017 16.4178 2.00406H10.5799C10.5521 1.99975 10.524 1.99779 10.4959 1.9982ZM6.00178 3.00406H9.94905L9.03889 12.0041H6.00178H3.11115L4.98811 4.1193C5.07025 3.7743 5.21239 3.47411 5.38264 3.28531C5.55288 3.09651 5.72498 3.00406 6.00178 3.00406ZM10.9549 3.00406H16.0018V12.0041H13.0018H10.0467L10.9549 3.00406ZM17.0018 3.00406H22.0487L22.9569 12.0041H20.0018H17.0018V3.00406ZM23.0545 3.00406H27.0018C27.2786 3.00406 27.4487 3.09701 27.619 3.28531C27.7892 3.47411 27.9333 3.7743 28.0155 4.1193L29.8924 12.0041H27.0018H23.9647L23.0545 3.00406ZM3.13264 13.0041H6.00178H8.86897C8.71669 13.8882 8.27438 14.697 7.49787 15.1525C6.56957 15.697 5.43204 15.697 4.50373 15.1525C3.72713 14.6969 3.28484 13.8884 3.13264 13.0041ZM10.1326 13.0041H13.0018H15.869C15.7167 13.8882 15.2744 14.697 14.4979 15.1525C13.5696 15.697 12.432 15.697 11.5037 15.1525C10.7271 14.6969 10.2848 13.8884 10.1326 13.0041ZM17.1326 13.0041H20.0018H22.869C22.7167 13.8882 22.2744 14.697 21.4979 15.1525C20.5696 15.697 19.432 15.697 18.5037 15.1525C17.7271 14.6969 17.2848 13.8884 17.1326 13.0041ZM24.1326 13.0041H27.0018H29.869C29.7167 13.8882 29.2744 14.697 28.4979 15.1525C27.5696 15.697 26.432 15.697 25.5037 15.1525C24.7271 14.6969 24.2848 13.8884 24.1326 13.0041ZM9.49983 14.4572C9.84499 15.0929 10.3559 15.6372 10.9979 16.0138C12.2354 16.7397 13.7662 16.7397 15.0037 16.0138C15.6455 15.6374 16.1542 15.0926 16.4998 14.4572C16.845 15.0929 17.3559 15.6372 17.9979 16.0138C19.2354 16.7397 20.7662 16.7397 22.0037 16.0138C22.6455 15.6374 23.1542 15.0926 23.4998 14.4572C23.845 15.0929 24.3559 15.6372 24.9979 16.0138C25.9177 16.5534 26.9988 16.6904 28.0018 16.4279V29.0041H5.00178V16.4279C6.00427 16.6897 7.0845 16.553 8.00373 16.0138C8.64547 15.6374 9.15416 15.0926 9.49983 14.4572ZM23.0916 21.0041C22.9301 20.9993 22.7689 21.0084 22.6092 21.0295C21.9703 21.1135 21.358 21.4017 20.8787 21.881C19.9201 22.8395 19.7243 24.3301 20.4022 25.5041C21.08 26.6781 22.4677 27.2514 23.7772 26.9005C25.0866 26.5497 26.0018 25.3598 26.0018 24.0041C26.0018 23.8715 25.9491 23.7443 25.8553 23.6505C25.7616 23.5568 25.6344 23.5041 25.5018 23.5041H23.0018C22.9355 23.5031 22.8697 23.5154 22.8083 23.5401C22.7468 23.5648 22.6908 23.6015 22.6436 23.648C22.5964 23.6945 22.559 23.7499 22.5334 23.8111C22.5078 23.8722 22.4947 23.9378 22.4947 24.0041C22.4947 24.0703 22.5078 24.1359 22.5334 24.1971C22.559 24.2582 22.5964 24.3136 22.6436 24.3601C22.6908 24.4067 22.7468 24.4433 22.8083 24.4681C22.8697 24.4928 22.9355 24.505 23.0018 24.5041H24.8319C24.6452 25.1721 24.216 25.749 23.5194 25.9357C22.6424 26.1706 21.7233 25.7903 21.2694 25.0041C20.8154 24.2179 20.9438 23.2299 21.5858 22.588C22.2277 21.946 23.2156 21.8177 24.0018 22.2716C24.1167 22.3372 24.253 22.3546 24.3807 22.3199C24.5084 22.2853 24.6172 22.2015 24.6833 22.0869C24.7494 21.9722 24.7674 21.8361 24.7334 21.7082C24.6994 21.5803 24.6161 21.4711 24.5018 21.4045C24.0615 21.1503 23.5762 21.0183 23.0916 21.0041Z" fill="black"/>
</svg>
