<svg width="32" height="32" viewBox="0 0 32 32" fill="none" xmlns="http://www.w3.org/2000/svg">
<path d="M18.0141 9.56384C16.5751 10.0868 15.6661 11.4378 15.7701 12.9148L15.8051 13.4848L15.2291 13.4148C13.1351 13.1468 11.3041 12.2398 9.75013 10.7148L8.99013 9.95884L8.79413 10.5178C8.38013 11.7628 8.64513 13.0778 9.50813 13.9628C9.96813 14.4518 9.86413 14.5218 9.07113 14.2308C8.79513 14.1378 8.55313 14.0678 8.53013 14.1028C8.45013 14.1848 8.72613 15.2428 8.94413 15.6618C9.24313 16.2438 9.85313 16.8138 10.5211 17.1518L11.0851 17.4198L10.4181 17.4318C9.77413 17.4318 9.75113 17.4438 9.82013 17.6888C10.0501 18.4448 10.9591 19.2478 11.9721 19.5978L12.6861 19.8418L12.0651 20.2138C11.1253 20.7551 10.0644 21.0512 8.98013 21.0748C8.46113 21.0868 8.03613 21.1328 8.03613 21.1678C8.03613 21.2838 9.44113 21.9348 10.2571 22.1918C12.7081 22.9478 15.6211 22.6218 17.8081 21.3308C19.3621 20.4108 20.9151 18.5848 21.6411 16.8148C22.0331 15.8728 22.4241 14.1498 22.4241 13.3248C22.4241 12.7888 22.4591 12.7198 23.1031 12.0798C23.4831 11.7078 23.8401 11.3008 23.9091 11.1838C24.0241 10.9628 24.0121 10.9628 23.4261 11.1598C22.4481 11.5088 22.3091 11.4628 22.7931 10.9388C23.1491 10.5668 23.5761 9.89184 23.5761 9.69384C23.5761 9.65884 23.4041 9.71684 23.2071 9.82184C23.0001 9.93784 22.5401 10.1128 22.1941 10.2168L21.5731 10.4148L21.0091 10.0298C20.6981 9.82084 20.2611 9.58784 20.0311 9.51784C19.4421 9.35484 18.5441 9.37784 18.0141 9.56384Z" fill="black"/>
<path d="M16 1C24.271 1 31 7.729 31 16C31 24.271 24.271 31 16 31C7.729 31 1 24.271 1 16C1 7.729 7.729 1 16 1ZM16 0C7.163 0 0 7.164 0 16C0 24.836 7.163 32 16 32C24.837 32 32 24.836 32 16C32 7.164 24.837 0 16 0Z" fill="black"/>
</svg>
